<svg width="54" height="62" viewBox="0 0 54 62" fill="none" xmlns="http://www.w3.org/2000/svg">
<path d="M5.22416 11.9285L2.0257 19.8181C6.3614 21.2752 15.0968 25.1275 15.3526 28.8804C15.6085 32.6333 5.22416 37.6229 0 39.6486L4.90432 50.3101L20.4702 43.5934L19.9371 61.3982H34.6501C34.1525 55.5343 33.456 43.572 34.6501 42.6338C35.8442 41.6956 44.9562 46.5786 49.363 49.1374C51.1044 46.4009 54.4592 40.7787 53.9475 40.1817C53.3078 39.4354 50.3226 37.4097 46.9109 35.1707C44.1815 33.3796 39.0213 31.226 36.7824 30.373C38.5593 29.3424 42.7742 26.8974 45.4182 25.3621C48.0623 23.8268 52.2061 20.3156 53.9475 18.7519L48.8299 10.0094C47.5861 10.969 44.3308 13.3785 41.2602 15.3402C38.1897 17.302 34.579 18.6453 33.1574 19.0718L33.3707 0.0941888C32.9798 0.0231117 31.2384 -0.0763962 27.4002 0.0941888C23.562 0.264774 22.2471 0.876036 22.0694 1.16034C22.0694 1.16034 23.562 17.8334 20.1503 18.7519C16.7386 19.6704 5.22416 11.9285 5.22416 11.9285Z" fill="url(#paint0_linear_709_38)"/>
<defs>
<linearGradient id="paint0_linear_709_38" x1="53.9475" y1="30.7995" x2="4.02696e-06" y2="30.1598" gradientUnits="userSpaceOnUse">
<stop stop-color="#0F6D2E"/>
<stop offset="0.5" stop-color="#31AA43"/>
<stop offset="1" stop-color="#0F6D2E"/>
</linearGradient>
</defs>
</svg>
